# This file uses centimeters as units for non-parametric coordinates.

mtllib Varita.mtl
g default
v -0.164931 0.817402 3.916361
v -0.248094 0.817401 3.334630
v 0.186088 0.817401 3.007777
v 0.541930 0.817402 3.920633
v 0.652804 0.817401 3.334630
v 0.185652 0.817402 4.919676
v -1.314125 0.817402 3.918498
v 1.703142 0.817402 3.914385
v -0.817314 0.817401 2.305072
v 1.227271 0.817401 2.300480
v 0.185652 1.313893 4.919676
v -0.164931 1.313893 3.916361
v 0.541930 1.313893 3.920633
v -1.314140 1.313893 3.918498
v -0.248094 1.313893 3.334630
v 1.703127 1.313893 3.914385
v 0.652804 1.313893 3.334630
v -0.817314 1.313893 2.305072
v 0.186088 1.313893 3.007777
v 1.227271 1.313893 2.300480
v 0.013805 1.203949 3.069535
v 0.013805 1.203948 -4.300962
v 0.013805 0.918220 3.069535
v 0.013805 0.918218 -4.300962
v 0.304430 1.203949 3.069535
v 0.304430 1.203948 -4.300962
v 0.304430 0.918220 3.069535
v 0.304430 0.918218 -4.300962
vt 0.954720 0.407060
vt 0.953204 0.395474
vt 0.961120 0.388965
vt 0.967608 0.407145
vt 0.969629 0.395474
vt 0.961112 0.427042
vt 0.933768 0.407103
vt 0.988778 0.407021
vt 0.942826 0.374970
vt 0.980103 0.374879
vt 0.932803 0.412326
vt 0.932803 0.416937
vt 0.936186 0.416937
vt 0.936186 0.412326
vt 0.929461 0.412326
vt 0.929461 0.416937
vt 0.938173 0.412326
vt 0.938173 0.416937
vt 0.941162 0.416937
vt 0.941162 0.412326
vt 0.952134 0.412326
vt 0.952134 0.416937
vt 0.954224 0.416937
vt 0.954224 0.412326
vt 0.949216 0.412326
vt 0.949216 0.416937
vt 0.942559 0.412326
vt 0.942559 0.416937
vt 0.945103 0.416937
vt 0.945103 0.412326
vt 0.947790 0.412326
vt 0.947790 0.416937
vt 0.954720 0.407060
vt 0.961120 0.388965
vt 0.953204 0.395474
vt 0.954720 0.407060
vt 0.967608 0.407145
vt 0.961120 0.388965
vt 0.967608 0.407145
vt 0.969629 0.395474
vt 0.961120 0.388965
vt 0.954720 0.407060
vt 0.961112 0.427042
vt 0.967608 0.407145
vt 0.953204 0.395474
vt 0.933768 0.407103
vt 0.954720 0.407060
vt 0.967608 0.407145
vt 0.988778 0.407021
vt 0.969629 0.395474
vt 0.961120 0.388965
vt 0.942826 0.374970
vt 0.953204 0.395474
vt 0.969629 0.395474
vt 0.980103 0.374879
vt 0.961120 0.388965
vt 0.897612 0.412066
vt 0.897612 0.365505
vt 0.910783 0.412066
vt 0.910783 0.365505
vt 0.897612 0.412066
vt 0.897612 0.365505
vt 0.910783 0.412066
vt 0.910783 0.365505
vt 0.910783 0.412066
vt 0.897612 0.365505
vt 0.897612 0.412066
vt 0.897612 0.365505
vt 0.910783 0.412066
vt 0.910783 0.365505
vt 0.910783 0.412066
vt 0.897612 0.365505
vt 0.897612 0.412066
vt 0.897612 0.365505
vt 0.910783 0.412066
vt 0.910783 0.365505
vt 0.910783 0.412066
vt 0.897612 0.365505
vt 0.897612 0.365505
vt 0.897612 0.412066
vt 0.910783 0.412066
vt 0.897612 0.412066
vn -0.253027 -0.890116 0.379040
vn -0.475394 -0.867509 -0.146384
vn -0.001236 -0.834975 -0.550287
vn -0.253027 -0.890116 0.379040
vn -0.001236 -0.834975 -0.550287
vn 0.253216 -0.888696 0.382231
vn 0.253216 -0.888696 0.382231
vn -0.001236 -0.834975 -0.550287
vn 0.452392 -0.881788 -0.133387
vn -0.253027 -0.890116 0.379040
vn 0.253216 -0.888696 0.382231
vn -0.004557 -0.656927 0.753941
vn -0.475394 -0.867509 -0.146384
vn -0.253027 -0.890116 0.379040
vn -0.800161 -0.588779 0.114375
vn 0.253216 -0.888696 0.382231
vn 0.452392 -0.881788 -0.133387
vn 0.787957 -0.597414 0.149065
vn -0.001236 -0.834975 -0.550287
vn -0.475394 -0.867509 -0.146384
vn -0.497498 -0.561927 -0.660859
vn 0.452392 -0.881788 -0.133387
vn -0.001236 -0.834975 -0.550287
vn 0.468927 -0.575988 -0.669585
vn -0.004557 -0.656927 0.753941
vn -0.004556 0.656927 0.753941
vn -0.253026 0.890117 0.379039
vn -0.253026 0.890117 0.379039
vn -0.253027 -0.890116 0.379040
vn -0.004557 -0.656927 0.753941
vn 0.253216 -0.888696 0.382231
vn 0.253217 0.888696 0.382231
vn -0.004556 0.656927 0.753941
vn -0.004556 0.656927 0.753941
vn -0.004557 -0.656927 0.753941
vn 0.253216 -0.888696 0.382231
vn -0.800161 -0.588779 0.114375
vn -0.800173 0.588764 0.114370
vn -0.475392 0.867510 -0.146386
vn -0.475392 0.867510 -0.146386
vn -0.475394 -0.867509 -0.146384
vn -0.800161 -0.588779 0.114375
vn -0.253027 -0.890116 0.379040
vn -0.253026 0.890117 0.379039
vn -0.800173 0.588764 0.114370
vn -0.800173 0.588764 0.114370
vn -0.800161 -0.588779 0.114375
vn -0.253027 -0.890116 0.379040
vn 0.787957 -0.597414 0.149065
vn 0.787947 0.597426 0.149070
vn 0.253217 0.888696 0.382231
vn 0.253217 0.888696 0.382231
vn 0.253216 -0.888696 0.382231
vn 0.787957 -0.597414 0.149065
vn 0.452392 -0.881788 -0.133387
vn 0.452394 0.881787 -0.133388
vn 0.787947 0.597426 0.149070
vn 0.787947 0.597426 0.149070
vn 0.787957 -0.597414 0.149065
vn 0.452392 -0.881788 -0.133387
vn -0.497498 -0.561927 -0.660859
vn -0.497498 0.561927 -0.660859
vn -0.001236 0.834975 -0.550287
vn -0.001236 0.834975 -0.550287
vn -0.001236 -0.834975 -0.550287
vn -0.497498 -0.561927 -0.660859
vn -0.475394 -0.867509 -0.146384
vn -0.475392 0.867510 -0.146386
vn -0.497498 0.561927 -0.660859
vn -0.497498 0.561927 -0.660859
vn -0.497498 -0.561927 -0.660859
vn -0.475394 -0.867509 -0.146384
vn 0.468927 -0.575988 -0.669585
vn 0.468927 0.575988 -0.669586
vn 0.452394 0.881787 -0.133388
vn 0.452394 0.881787 -0.133388
vn 0.452392 -0.881788 -0.133387
vn 0.468927 -0.575988 -0.669585
vn -0.001236 -0.834975 -0.550287
vn -0.001236 0.834975 -0.550287
vn 0.468927 0.575988 -0.669586
vn 0.468927 0.575988 -0.669586
vn 0.468927 -0.575988 -0.669585
vn -0.001236 -0.834975 -0.550287
vn -0.253026 0.890117 0.379039
vn -0.001236 0.834975 -0.550287
vn -0.475392 0.867510 -0.146386
vn -0.253026 0.890117 0.379039
vn 0.253217 0.888696 0.382231
vn -0.001236 0.834975 -0.550287
vn 0.253217 0.888696 0.382231
vn 0.452394 0.881787 -0.133388
vn -0.001236 0.834975 -0.550287
vn -0.253026 0.890117 0.379039
vn -0.004556 0.656927 0.753941
vn 0.253217 0.888696 0.382231
vn -0.475392 0.867510 -0.146386
vn -0.800173 0.588764 0.114370
vn -0.253026 0.890117 0.379039
vn 0.253217 0.888696 0.382231
vn 0.787947 0.597426 0.149070
vn 0.452394 0.881787 -0.133388
vn -0.001236 0.834975 -0.550287
vn -0.497498 0.561927 -0.660859
vn -0.475392 0.867510 -0.146386
vn 0.452394 0.881787 -0.133388
vn 0.468927 0.575988 -0.669586
vn -0.001236 0.834975 -0.550287
vn -0.701076 0.713087 0.000000
vn -0.700806 0.712816 -0.027634
vn -0.701074 -0.713089 0.000000
vn -0.700808 -0.712815 -0.027633
vn -0.701074 -0.713089 0.000000
vn -0.700806 0.712816 -0.027634
vn 0.701076 0.713086 0.000000
vn 0.700806 0.712816 -0.027634
vn -0.701076 0.713087 0.000000
vn -0.700806 0.712816 -0.027634
vn -0.701076 0.713087 0.000000
vn 0.700806 0.712816 -0.027634
vn 0.701074 -0.713089 0.000000
vn 0.700809 -0.712814 -0.027633
vn 0.701076 0.713086 0.000000
vn 0.700806 0.712816 -0.027634
vn 0.701076 0.713086 0.000000
vn 0.700809 -0.712814 -0.027633
vn -0.701074 -0.713089 0.000000
vn -0.700808 -0.712815 -0.027633
vn 0.701074 -0.713089 0.000000
vn 0.700809 -0.712814 -0.027633
vn 0.701074 -0.713089 0.000000
vn -0.700808 -0.712815 -0.027633
vn 0.700809 -0.712814 -0.027633
vn -0.700808 -0.712815 -0.027633
vn 0.700806 0.712816 -0.027634
vn -0.700806 0.712816 -0.027634
vn 0.700806 0.712816 -0.027634
vn -0.700808 -0.712815 -0.027633
s off
g polySurface206
usemtl lambert2SG
f 1/1/1 2/2/2 3/3/3
f 1/1/4 3/3/5 4/4/6
f 4/4/7 3/3/8 5/5/9
f 1/1/10 4/4/11 6/6/12
f 2/2/13 1/1/14 7/7/15
f 4/4/16 5/5/17 8/8/18
f 3/3/19 2/2/20 9/9/21
f 5/5/22 3/3/23 10/10/24
f 6/11/25 11/12/26 12/13/27
f 12/13/28 1/14/29 6/11/30
f 4/15/31 13/16/32 11/12/33
f 11/12/34 6/11/35 4/15/36
f 7/17/37 14/18/38 15/19/39
f 15/19/40 2/20/41 7/17/42
f 1/14/43 12/13/44 14/18/45
f 14/18/46 7/17/47 1/14/48
f 8/21/49 16/22/50 13/23/51
f 13/23/52 4/24/53 8/21/54
f 5/25/55 17/26/56 16/22/57
f 16/22/58 8/21/59 5/25/60
f 9/27/61 18/28/62 19/29/63
f 19/29/64 3/30/65 9/27/66
f 2/20/67 15/19/68 18/28/69
f 18/28/70 9/27/71 2/20/72
f 10/31/73 20/32/74 17/26/75
f 17/26/76 5/25/77 10/31/78
f 3/30/79 19/29/80 20/32/81
f 20/32/82 10/31/83 3/30/84
f 12/33/85 19/34/86 15/35/87
f 12/36/88 13/37/89 19/38/90
f 13/39/91 17/40/92 19/41/93
f 12/42/94 11/43/95 13/44/96
f 15/45/97 14/46/98 12/47/99
f 13/48/100 16/49/101 17/50/102
f 19/51/103 18/52/104 15/53/105
f 17/54/106 20/55/107 19/56/108
usemtl lambert3SG
f 21/57/109 22/58/110 23/59/111
f 24/60/112 23/59/113 22/58/114
f 25/61/115 26/62/116 21/63/117
f 22/64/118 21/65/119 26/66/120
f 27/67/121 28/68/122 25/69/123
f 26/70/124 25/71/125 28/72/126
f 23/73/127 24/74/128 27/75/129
f 28/76/130 27/77/131 24/78/132
f 28/79/133 24/60/134 26/80/135
f 22/81/136 26/82/137 24/60/138
