# This file uses centimeters as units for non-parametric coordinates.

mtllib Muro.mtl
g default
v 7.193792 5.628474 2.243357
v 7.193792 7.311752 2.243357
v 6.764644 5.628474 2.243357
v 6.764644 7.311752 2.243357
v 6.764644 5.628474 -1.533659
v 6.764644 7.311752 -1.533659
v 7.193792 5.628474 -1.533659
v 7.193792 7.311752 -1.533659
vt 0.057147 -1.271414
vt 0.942853 -1.271414
vt 0.057147 -0.385707
vt 0.942853 -0.385707
vt 0.057147 0.500000
vt 0.942853 0.500000
vt 0.057147 1.385707
vt 0.942853 1.385707
vt 0.057147 2.271414
vt 0.942853 2.271414
vt 1.828560 -1.271414
vt 1.828560 -0.385707
vt -0.828560 -1.271414
vt -0.828560 -0.385707
vn 0.000000 0.000000 1.000000
vn 0.000000 0.000000 1.000000
vn 0.000000 0.000000 1.000000
vn 0.000000 0.000000 1.000000
vn -1.000000 0.000000 0.000000
vn -1.000000 0.000000 0.000000
vn -1.000000 0.000000 0.000000
vn -1.000000 0.000000 0.000000
vn 0.000000 0.000000 -1.000000
vn 0.000000 0.000000 -1.000000
vn 0.000000 0.000000 -1.000000
vn 0.000000 0.000000 -1.000000
vn 1.000000 0.000000 0.000000
vn 1.000000 0.000000 0.000000
vn 1.000000 0.000000 0.000000
vn 1.000000 0.000000 0.000000
vn 0.000000 1.000000 0.000000
vn 0.000000 1.000000 0.000000
vn 0.000000 1.000000 0.000000
vn 0.000000 1.000000 0.000000
vn 0.000000 -1.000000 0.000000
vn 0.000000 -1.000000 0.000000
vn 0.000000 -1.000000 0.000000
vn 0.000000 -1.000000 0.000000
s 1
g pasted__polySurface503 pasted__pasted__pasted__pasted__pCube10 group21
usemtl pasted__lambert34SG1
f 1/1/1 2/2/2 3/3/3
f 3/3/3 2/2/2 4/4/4
s 2
f 3/3/5 4/4/6 5/5/7
f 5/5/7 4/4/6 6/6/8
s 3
f 5/5/9 6/6/10 7/7/11
f 7/7/11 6/6/10 8/8/12
s 4
f 7/7/13 8/8/14 1/9/15
f 1/9/15 8/8/14 2/10/16
s 5
f 2/2/17 8/11/18 4/4/19
f 4/4/19 8/11/18 6/12/20
s 6
f 7/13/21 1/1/22 5/14/23
f 5/14/23 1/1/22 3/3/24
