# This file uses centimeters as units for non-parametric coordinates.

mtllib Techo.mtl
g default
v -6.342905 12.372288 9.545595
v -6.342905 12.372288 -8.902056
v 0.069117 16.862034 9.545595
v 0.069117 16.862034 -8.902056
v -0.177032 17.213572 9.545595
v -0.177032 17.213572 -8.902056
v -6.589055 12.723825 9.545595
v -6.589055 12.723825 -8.902056
vt 0.200708 -0.697168
vt 0.799292 -0.697168
vt 0.200708 -0.098584
vt 0.799292 -0.098584
vt 0.200708 0.500000
vt 0.799292 0.500000
vt 0.200708 1.098584
vt 0.799292 1.098584
vt 0.200708 1.697168
vt 0.799292 1.697168
vt 1.397876 -0.697168
vt 1.397876 -0.098584
vt -0.397876 -0.697168
vt -0.397876 -0.098584
vn 0.573576 -0.819152 0.000000
vn 0.573577 -0.819152 0.000000
vn 0.573576 -0.819152 0.000000
vn 0.573576 -0.819152 0.000000
vn 0.819152 0.573577 0.000000
vn 0.819152 0.573577 0.000000
vn 0.819152 0.573577 0.000000
vn 0.819152 0.573577 0.000000
vn -0.573576 0.819152 0.000000
vn -0.573576 0.819152 0.000000
vn -0.573576 0.819152 0.000000
vn -0.573576 0.819152 0.000000
vn -0.819152 -0.573577 0.000000
vn -0.819151 -0.573578 0.000000
vn -0.819152 -0.573577 0.000000
vn -0.819151 -0.573578 0.000000
vn 0.000000 0.000000 -1.000000
vn 0.000000 0.000000 -1.000000
vn 0.000000 0.000000 -1.000000
vn 0.000000 0.000000 -1.000000
vn 0.000000 0.000000 1.000000
vn -0.000000 0.000000 1.000000
vn -0.000000 0.000000 1.000000
vn -0.000000 0.000000 1.000000
s 1
g polySurface337 pasted__pasted__pasted__pCube10
usemtl lambert5SG
f 1/1/1 2/2/2 3/3/3
f 3/3/3 2/2/2 4/4/4
s 2
f 3/3/5 4/4/6 5/5/7
f 5/5/7 4/4/6 6/6/8
s 3
f 5/5/9 6/6/10 7/7/11
f 7/7/11 6/6/10 8/8/12
s 4
f 7/7/13 8/8/14 1/9/15
f 1/9/15 8/8/14 2/10/16
s 5
f 2/2/17 8/11/18 4/4/19
f 4/4/19 8/11/18 6/12/20
s 6
f 7/13/21 1/1/22 5/14/23
f 5/14/23 1/1/22 3/3/24
g default
v 6.199945 12.723825 9.545595
v 6.199945 12.723825 -8.902056
v -0.212078 17.213572 9.545595
v -0.212078 17.213572 -8.902056
v -0.458227 16.862034 9.545595
v -0.458227 16.862034 -8.902056
v 5.953797 12.372288 9.545595
v 5.953797 12.372288 -8.902056
vt 0.200831 -0.696674
vt 0.799169 -0.696674
vt 0.200831 -0.098337
vt 0.799169 -0.098337
vt 0.200831 0.500000
vt 0.799169 0.500000
vt 0.200831 1.098337
vt 0.799169 1.098337
vt 0.200831 1.696674
vt 0.799169 1.696674
vt 1.397506 -0.696674
vt 1.397506 -0.098337
vt -0.397506 -0.696674
vt -0.397506 -0.098337
vn 0.573577 0.819152 0.000000
vn 0.573576 0.819152 0.000000
vn 0.573576 0.819152 0.000000
vn 0.573576 0.819152 0.000000
vn -0.819152 0.573576 0.000000
vn -0.819152 0.573576 0.000000
vn -0.819152 0.573576 0.000000
vn -0.819152 0.573576 0.000000
vn -0.573576 -0.819152 0.000000
vn -0.573576 -0.819152 0.000000
vn -0.573576 -0.819152 0.000000
vn -0.573576 -0.819152 0.000000
vn 0.819154 -0.573574 0.000000
vn 0.819153 -0.573576 0.000000
vn 0.819154 -0.573574 0.000000
vn 0.819153 -0.573575 0.000000
vn 0.000000 0.000000 -1.000000
vn -0.000000 0.000000 -1.000000
vn -0.000000 0.000000 -1.000000
vn -0.000000 0.000000 -1.000000
vn 0.000000 0.000000 1.000000
vn 0.000000 0.000000 1.000000
vn 0.000000 0.000000 1.000000
vn 0.000000 0.000000 1.000000
s 1
g pasted__pasted__pasted__pCube10 polySurface336
usemtl lambert4SG
f 9/15/25 10/16/26 11/17/27
f 11/17/27 10/16/26 12/18/28
s 2
f 11/17/29 12/18/30 13/19/31
f 13/19/31 12/18/30 14/20/32
s 3
f 13/19/33 14/20/34 15/21/35
f 15/21/35 14/20/34 16/22/36
s 4
f 15/21/37 16/22/38 9/23/39
f 9/23/39 16/22/38 10/24/40
s 5
f 10/16/41 16/25/42 12/18/43
f 12/18/43 16/25/42 14/26/44
s 6
f 15/27/45 9/15/46 13/28/47
f 13/28/47 9/15/46 11/17/48
g default
v -6.342905 12.372288 9.545595
v -6.342905 12.372288 -8.902056
v 0.069117 16.862034 9.545595
v 0.069117 16.862034 -8.902056
v -0.177032 17.213572 9.545595
v -0.177032 17.213572 -8.902056
v -6.589055 12.723825 9.545595
v -6.589055 12.723825 -8.902056
vt 0.200708 -0.697168
vt 0.799292 -0.697168
vt 0.200708 -0.098584
vt 0.799292 -0.098584
vt 0.200708 0.500000
vt 0.799292 0.500000
vt 0.200708 1.098584
vt 0.799292 1.098584
vt 0.200708 1.697168
vt 0.799292 1.697168
vt 1.397876 -0.697168
vt 1.397876 -0.098584
vt -0.397876 -0.697168
vt -0.397876 -0.098584
vn 0.573576 -0.819152 0.000000
vn 0.573577 -0.819152 0.000000
vn 0.573576 -0.819152 0.000000
vn 0.573576 -0.819152 0.000000
vn 0.819152 0.573577 0.000000
vn 0.819152 0.573577 0.000000
vn 0.819152 0.573577 0.000000
vn 0.819152 0.573577 0.000000
vn -0.573576 0.819152 0.000000
vn -0.573576 0.819152 0.000000
vn -0.573576 0.819152 0.000000
vn -0.573576 0.819152 0.000000
vn -0.819152 -0.573577 0.000000
vn -0.819151 -0.573578 0.000000
vn -0.819152 -0.573577 0.000000
vn -0.819151 -0.573578 0.000000
vn 0.000000 0.000000 -1.000000
vn 0.000000 0.000000 -1.000000
vn 0.000000 0.000000 -1.000000
vn 0.000000 0.000000 -1.000000
vn 0.000000 0.000000 1.000000
vn -0.000000 0.000000 1.000000
vn -0.000000 0.000000 1.000000
vn -0.000000 0.000000 1.000000
s 1
g polySurface337 pasted__pasted__pasted__pCube10
f 17/29/49 18/30/50 19/31/51
f 19/31/51 18/30/50 20/32/52
s 2
f 19/31/53 20/32/54 21/33/55
f 21/33/55 20/32/54 22/34/56
s 3
f 21/33/57 22/34/58 23/35/59
f 23/35/59 22/34/58 24/36/60
s 4
f 23/35/61 24/36/62 17/37/63
f 17/37/63 24/36/62 18/38/64
s 5
f 18/30/65 24/39/66 20/32/67
f 20/32/67 24/39/66 22/40/68
s 6
f 23/41/69 17/29/70 21/42/71
f 21/42/71 17/29/70 19/31/72
g default
v 6.199945 12.723825 9.545595
v 6.199945 12.723825 -8.902056
v -0.212078 17.213572 9.545595
v -0.212078 17.213572 -8.902056
v -0.458227 16.862034 9.545595
v -0.458227 16.862034 -8.902056
v 5.953797 12.372288 9.545595
v 5.953797 12.372288 -8.902056
vt 0.200831 -0.696674
vt 0.799169 -0.696674
vt 0.200831 -0.098337
vt 0.799169 -0.098337
vt 0.200831 0.500000
vt 0.799169 0.500000
vt 0.200831 1.098337
vt 0.799169 1.098337
vt 0.200831 1.696674
vt 0.799169 1.696674
vt 1.397506 -0.696674
vt 1.397506 -0.098337
vt -0.397506 -0.696674
vt -0.397506 -0.098337
vn 0.573577 0.819152 0.000000
vn 0.573576 0.819152 0.000000
vn 0.573576 0.819152 0.000000
vn 0.573576 0.819152 0.000000
vn -0.819152 0.573576 0.000000
vn -0.819152 0.573576 0.000000
vn -0.819152 0.573576 0.000000
vn -0.819152 0.573576 0.000000
vn -0.573576 -0.819152 0.000000
vn -0.573576 -0.819152 0.000000
vn -0.573576 -0.819152 0.000000
vn -0.573576 -0.819152 0.000000
vn 0.819154 -0.573574 0.000000
vn 0.819153 -0.573576 0.000000
vn 0.819154 -0.573574 0.000000
vn 0.819153 -0.573575 0.000000
vn 0.000000 0.000000 -1.000000
vn -0.000000 0.000000 -1.000000
vn -0.000000 0.000000 -1.000000
vn -0.000000 0.000000 -1.000000
vn 0.000000 0.000000 1.000000
vn 0.000000 0.000000 1.000000
vn 0.000000 0.000000 1.000000
vn 0.000000 0.000000 1.000000
s 1
g pasted__pasted__pasted__pCube10 polySurface336
f 25/43/73 26/44/74 27/45/75
f 27/45/75 26/44/74 28/46/76
s 2
f 27/45/77 28/46/78 29/47/79
f 29/47/79 28/46/78 30/48/80
s 3
f 29/47/81 30/48/82 31/49/83
f 31/49/83 30/48/82 32/50/84
s 4
f 31/49/85 32/50/86 25/51/87
f 25/51/87 32/50/86 26/52/88
s 5
f 26/44/89 32/53/90 28/46/91
f 28/46/91 32/53/90 30/54/92
s 6
f 31/55/93 25/43/94 29/56/95
f 29/56/95 25/43/94 27/45/96
